<?xml version="1.0" standalone="no"?>
<!DOCTYPE svg PUBLIC "-//W3C//DTD SVG 20010904//EN"
 "http://www.w3.org/TR/2001/REC-SVG-20010904/DTD/svg10.dtd">
<svg version="1.0" xmlns="http://www.w3.org/2000/svg"
 width="353.000000pt" height="353.000000pt" viewBox="0 0 353.000000 353.000000"
 preserveAspectRatio="xMidYMid meet">
<metadata>
Created by potrace 1.14, written by Peter Selinger 2001-2017
</metadata>
<g transform="translate(0.000000,353.000000) scale(0.100000,-0.100000)"
fill="#000000" stroke="none">
<path d="M1588 3511 c-77 -21 -181 -76 -247 -129 -148 -121 -259 -337 -293
-566 -9 -65 -16 -86 -28 -87 -8 0 -82 0 -165 0 -167 -1 -207 -8 -223 -44 -6
-13 -57 -205 -112 -427 -56 -222 -114 -452 -130 -513 -42 -160 -342 -1347
-345 -1365 -4 -24 12 -58 37 -74 19 -12 99 -27 278 -51 14 -2 147 -22 295 -44
149 -22 286 -43 305 -45 19 -3 125 -19 235 -36 218 -33 210 -32 370 -55 61 -9
121 -18 135 -20 14 -2 45 -7 70 -10 25 -3 52 -8 60 -10 8 -2 40 -7 70 -10 30
-4 71 -10 90 -14 39 -8 38 -8 275 42 94 20 181 38 195 41 14 2 68 14 120 25
52 11 106 22 120 25 14 2 78 16 142 30 64 14 127 27 140 30 13 2 68 14 124 25
55 12 109 23 120 25 10 2 30 7 44 10 14 3 36 8 50 10 96 18 154 34 158 44 2 6
-17 80 -42 164 -57 193 -127 433 -206 708 -34 118 -70 242 -80 275 -20 65
-270 920 -330 1130 l-37 130 -172 1 c-95 1 -174 4 -177 7 -2 2 -7 22 -9 43
-40 321 -197 572 -431 691 -117 60 -282 78 -406 44z m303 -130 c203 -77 357
-290 404 -554 7 -45 10 -86 5 -91 -4 -4 -263 -9 -575 -10 l-566 -1 5 50 c7 80
36 184 71 262 82 179 200 294 356 347 93 32 212 30 300 -3z m758 -805 c-28
-104 -256 -946 -289 -1066 -42 -153 -192 -706 -305 -1126 l-67 -250 -52 7
c-111 16 -202 30 -227 34 -15 3 -47 7 -70 10 -49 6 -54 7 -189 29 -52 8 -115
18 -140 21 -25 3 -56 8 -70 10 -22 4 -516 77 -610 91 -19 3 -64 10 -100 15
-36 6 -74 12 -85 14 -62 8 -123 17 -145 21 -14 2 -45 7 -70 10 -25 3 -47 7
-49 10 -2 2 33 151 78 331 46 181 84 335 86 343 2 8 45 177 95 375 51 198 93
367 95 375 2 8 46 184 99 391 53 207 96 378 96 381 0 2 434 5 964 5 l963 0 -8
-31z m215 -561 c32 -110 90 -308 128 -440 39 -132 74 -253 78 -270 4 -16 60
-208 123 -425 64 -217 114 -396 112 -398 -2 -2 -32 12 -67 31 -35 19 -112 60
-173 92 -237 125 -260 137 -265 141 -2 3 -4 337 -5 744 0 406 3 736 6 732 3
-4 32 -97 63 -207z m-189 -547 l0 -733 -55 -50 c-30 -27 -74 -68 -99 -90 -24
-22 -58 -53 -76 -70 -226 -208 -289 -264 -293 -260 -2 2 2 23 9 46 7 24 13 49
15 54 3 15 116 434 191 705 35 129 66 243 68 253 5 23 149 557 180 667 22 78
46 164 51 183 1 4 2 12 3 17 6 46 7 -84 6 -722z m342 -975 c45 -24 112 -59
149 -77 50 -26 62 -35 48 -40 -11 -3 -118 -26 -239 -51 -121 -25 -305 -64
-410 -86 -208 -44 -242 -51 -250 -50 -2 0 -18 -4 -35 -9 -16 -5 -30 -5 -30 -1
0 4 26 30 58 58 31 28 73 66 94 84 20 19 78 72 129 119 51 47 120 111 154 142
l60 56 95 -50 c52 -28 132 -71 177 -95z"/>
<path d="M1021 2092 c-34 -5 -87 -47 -100 -80 -6 -15 -74 -278 -151 -584 -119
-473 -138 -561 -129 -582 20 -44 36 -46 369 -61 63 -3 158 -7 210 -10 94 -5
150 -8 402 -20 127 -6 128 -6 153 19 57 57 16 135 -72 137 -26 1 -61 2 -78 4
-16 1 -100 5 -185 9 -85 4 -186 9 -225 11 -38 2 -94 5 -122 6 -29 1 -53 4 -53
5 0 1 39 22 88 45 827 398 770 365 793 453 5 22 19 70 30 106 10 36 35 121 54
189 19 68 37 126 40 130 2 4 7 28 10 54 5 38 2 54 -17 88 -40 72 -43 72 -398
76 -173 2 -378 4 -455 6 -77 1 -151 0 -164 -1z m512 -164 c192 -1 350 -5 352
-8 2 -3 -25 -104 -59 -224 l-63 -218 -212 -104 c-117 -57 -214 -104 -216 -104
-2 0 -112 -54 -246 -120 -134 -66 -245 -116 -247 -112 -4 13 219 886 228 892
4 3 32 4 62 3 29 -1 210 -3 401 -5z"/>
</g>
</svg>
